<svg xmlns="http://www.w3.org/2000/svg" width="139.4" height="49.281" viewBox="0 0 139.4 49.281">
  <defs>
    <style>
      .cls-1 {
        fill: #ffffff;
        fill-rule: evenodd;
      }
    </style>
  </defs>
  <path id="架空の創作料理居酒屋_旬彩こかげ" data-name="架空の創作料理居酒屋 旬彩こかげ" class="cls-1" d="M7145.47,42.859a0.327,0.327,0,0,0,.21-0.231c0-.056-0.01-0.208-0.02-0.455s-0.02-.541-0.02-0.882-0.02-.691-0.03-1.05-0.02-.679-0.02-0.959V38.316a9.589,9.589,0,0,0,1.38,1.729,11.876,11.876,0,0,0,1.72,1.4,14.013,14.013,0,0,0,1.83,1.029,2.389,2.389,0,0,1,.47-0.532,2.811,2.811,0,0,1,.72-0.462,13.626,13.626,0,0,1-1.91-.581,10.027,10.027,0,0,1-2.01-1.043,9.182,9.182,0,0,1-1.86-1.666h5.5a0.137,0.137,0,0,0,.14-0.133,0.232,0.232,0,0,0-.08-0.231c-0.04-.037-0.13-0.114-0.26-0.231s-0.27-.233-0.41-0.35a3.262,3.262,0,0,0-.3-0.231,0.175,0.175,0,0,0-.25.014q-0.03.042-.15,0.189c-0.09.1-.17,0.2-0.25,0.3a2.317,2.317,0,0,1-.16.2,0.211,0.211,0,0,1-.15.056h-3.97V37.14a0.237,0.237,0,0,1,.15-0.259,1.384,1.384,0,0,1,.3-0.063,0.179,0.179,0,0,0,.16-0.154,0.164,0.164,0,0,0-.12-0.168c-0.16-.047-0.38-0.1-0.64-0.168a5.237,5.237,0,0,0-.63-0.126,0.127,0.127,0,0,0-.14.028,0.143,0.143,0,0,0,0,.154,1.43,1.43,0,0,1,.1.658V37.77h-5.01a4.858,4.858,0,0,1-.86-0.112l0.11,0.6a4.812,4.812,0,0,1,.75-0.07h4.29a13.073,13.073,0,0,1-1.59,1.715,19.576,19.576,0,0,1-1.83,1.505,16.554,16.554,0,0,1-1.7,1.092,0.18,0.18,0,0,0,.13.266,13.276,13.276,0,0,0,1.37-.658q0.75-.406,1.53-0.931a17.146,17.146,0,0,0,1.5-1.134,13.854,13.854,0,0,0,1.31-1.253v0.49c0,0.261-.01.579-0.02,0.952s-0.02.744-.02,1.113-0.02.681-.03,0.938-0.02.408-.02,0.455a0.242,0.242,0,0,0,.3.238A1,1,0,0,0,7145.47,42.859Zm1.43-6.7a0.3,0.3,0,0,0,.18-0.238V35.684h2.59v0.28c0,0.14.09,0.21,0.28,0.21a1.056,1.056,0,0,0,.45-0.1,0.3,0.3,0,0,0,.23-0.245c0-.047,0-0.187-0.01-0.42s-0.02-.518-0.03-0.854-0.02-.693-0.03-1.071-0.01-.74-0.01-1.085a0.3,0.3,0,0,1,.02-0.126,0.351,0.351,0,0,1,.09-0.084c0.05-.028.1-0.056,0.16-0.084a1.465,1.465,0,0,0,.16-0.1,0.146,0.146,0,0,0,.02-0.266,1.881,1.881,0,0,0-.23-0.217l-0.3-.266q-0.165-.133-0.24-0.189a0.182,0.182,0,0,0-.27.014c-0.06.065-.13,0.135-0.19,0.21s-0.14.149-.2,0.224a0.189,0.189,0,0,1-.15.07h-2.22q-0.165-.1-0.48-0.259c-0.21-.107-0.37-0.184-0.47-0.231a0.123,0.123,0,0,0-.15.014,0.1,0.1,0,0,0-.02.14,1.9,1.9,0,0,1,.11.385,7.212,7.212,0,0,1,.03.819c0,0.383,0,.777-0.01,1.183s-0.02.784-.03,1.134-0.02.642-.03,0.875-0.01.369-.01,0.406a0.209,0.209,0,0,0,.25.224A0.991,0.991,0,0,0,7146.9,36.16Zm-6.34-.119a6.53,6.53,0,0,0,1.15-1.533,8.821,8.821,0,0,0,.78-2.086h1.65a10.724,10.724,0,0,1-.5,2.646,1.221,1.221,0,0,1-.8.882,2.56,2.56,0,0,1-.59-0.014q-0.36-.042-0.63-0.084l-0.14-.028a0.438,0.438,0,0,0-.1-0.014,0.181,0.181,0,0,0-.06.28,3.661,3.661,0,0,1,.63.161,0.915,0.915,0,0,1,.37.273,2.6,2.6,0,0,1,.28.56,2.208,2.208,0,0,0,1.12-.448,2.24,2.24,0,0,0,.64-0.91,6.15,6.15,0,0,0,.34-1.281c0.08-.481.16-1,0.22-1.547a0.267,0.267,0,0,1,.14-0.252,1.213,1.213,0,0,0,.16-0.063,0.86,0.86,0,0,1,.16-0.063c0.13-.056.15-0.149,0.05-0.28-0.07-.075-0.17-0.184-0.31-0.329a4.553,4.553,0,0,0-.35-0.329,0.164,0.164,0,0,0-.24-0.014l-0.21.2c-0.08.075-.16,0.135-0.22,0.182-0.02.009-.04,0.021-0.07,0.035a0.157,0.157,0,0,1-.09.021h-1.36c0.02-.112.04-0.224,0.07-0.336s0.04-.229.05-0.35a0.323,0.323,0,0,1,.14-0.287,0.515,0.515,0,0,1,.3-0.049,0.13,0.13,0,0,0,.17-0.126,0.141,0.141,0,0,0-.08-0.182c-0.11-.037-0.24-0.079-0.41-0.126s-0.33-.093-0.5-0.14l-0.39-.112a0.114,0.114,0,0,0-.14.028,0.343,0.343,0,0,0,0,.21,2.239,2.239,0,0,0,.02.231,1.791,1.791,0,0,1,0,.329,9.073,9.073,0,0,1-.12.91h-1.6a5.408,5.408,0,0,1-.87-0.112l0.13,0.6a4.667,4.667,0,0,1,.74-0.07h1.51a7.778,7.778,0,0,1-1.07,2.716A8.271,8.271,0,0,1,7138.89,37a0.182,0.182,0,0,0,.03.14,0.2,0.2,0,0,0,.14.084A8.925,8.925,0,0,0,7140.56,36.041ZM7147.08,32h2.59v3.262h-2.59V32Zm8.15,5.481a5.057,5.057,0,0,0,1.49-.994,4.448,4.448,0,0,0,1.01-1.512,7.307,7.307,0,0,0,.48-2.205h1.41v3.206a0.844,0.844,0,0,0,1,.812c0.22,0.009.5,0.019,0.83,0.028s0.68,0.007,1.06-.007,0.73-.035,1.07-0.063a5.689,5.689,0,0,0,.87-0.126,1.189,1.189,0,0,0,.58-0.252,0.478,0.478,0,0,0,.14-0.308,0.328,0.328,0,0,0-.13-0.273,1.048,1.048,0,0,0-.36-0.147,0.22,0.22,0,0,1-.17-0.252V33.78a0.17,0.17,0,0,0-.28-0.042c-0.02.084-.06,0.245-0.11,0.483s-0.12.483-.18,0.735a5.042,5.042,0,0,1-.16.574,0.467,0.467,0,0,1-.14.245,0.78,0.78,0,0,1-.28.105,4.49,4.49,0,0,1-.76.091c-0.3.014-.59,0.019-0.88,0.014s-0.52-.012-0.68-0.021a0.948,0.948,0,0,1-.4-0.112,0.317,0.317,0,0,1-.12-0.28v-2.8h2.63c-0.05.1-.13,0.257-0.25,0.462s-0.23.408-.35,0.609-0.2.348-.25,0.441a0.165,0.165,0,0,0,.22.182c0.04-.028.12-0.1,0.25-0.21s0.29-.238.46-0.378l0.51-.4q0.255-.189.39-0.273a1.123,1.123,0,0,1,.3-0.133,0.606,0.606,0,0,1,.3.049,0.248,0.248,0,0,0,.31-0.07,0.3,0.3,0,0,0,.05-0.14,0.137,0.137,0,0,0-.05-0.126,3.218,3.218,0,0,0-.26-0.259c-0.13-.117-0.25-0.238-0.38-0.364s-0.24-.222-0.33-0.287a0.2,0.2,0,0,0-.29,0q-0.09.056-.27,0.2c-0.12.093-.2,0.163-0.25,0.21a0.25,0.25,0,0,1-.15.056h-3.59V31.246a0.237,0.237,0,0,1,.15-0.259,1.384,1.384,0,0,1,.3-0.063,0.146,0.146,0,0,0,.16-0.14,0.164,0.164,0,0,0-.12-0.168q-0.15-.042-0.42-0.1c-0.17-.037-0.35-0.075-0.53-0.112s-0.32-.065-0.43-0.084a0.184,0.184,0,0,0-.14.028,0.114,0.114,0,0,0,0,.154,1.43,1.43,0,0,1,.1.658v1.176h-3.57c0-.121-0.01-0.243-0.02-0.364s-0.02-.243-0.04-0.364a0.187,0.187,0,0,0-.29.028,5.957,5.957,0,0,1-.44,1.638,2.749,2.749,0,0,1-.92,1.218,0.5,0.5,0,0,0-.23.406,0.456,0.456,0,0,0,.17.392,0.513,0.513,0,0,0,.49.07,1.348,1.348,0,0,0,.76-0.5,2.5,2.5,0,0,0,.4-0.924,4.83,4.83,0,0,0,.13-1.162h2.24a8.306,8.306,0,0,1-.42,2,4.2,4.2,0,0,1-1.97,2.366,9.5,9.5,0,0,1-1.66.721,0.178,0.178,0,0,0,.09.28A11.39,11.39,0,0,0,7155.23,37.483Zm-1.39,4.935h11.23a0.149,0.149,0,0,0,.15-0.14,0.241,0.241,0,0,0-.08-0.238,3.127,3.127,0,0,0-.32-0.294c-0.14-.121-0.29-0.24-0.43-0.357s-0.25-.2-0.32-0.245a0.179,0.179,0,0,0-.26.028,2.86,2.86,0,0,0-.21.231c-0.1.107-.18,0.212-0.27,0.315a1.985,1.985,0,0,1-.18.21,0.211,0.211,0,0,1-.15.056h-3.45v-3.29h4.12a0.144,0.144,0,0,0,.15-0.126,0.254,0.254,0,0,0-.08-0.238c-0.06-.056-0.15-0.138-0.28-0.245s-0.25-.215-0.37-0.322a2.782,2.782,0,0,0-.29-0.231,0.181,0.181,0,0,0-.27.014c-0.04.065-.13,0.17-0.24,0.315s-0.2.254-.26,0.329a0.267,0.267,0,0,1-.21.084h-6.29a4.863,4.863,0,0,1-.85-0.112l0.11,0.6a5.091,5.091,0,0,1,.76-0.07h3.02v3.29h-4.73a4.733,4.733,0,0,1-.85-0.112l0.11,0.616a4.5,4.5,0,0,1,.74-0.07h0Zm20.64-.861a6.888,6.888,0,0,0,1.93-.945,4.784,4.784,0,0,0,1.39-1.519,4.175,4.175,0,0,0,.53-2.135,5.208,5.208,0,0,0-.4-2.044,4.512,4.512,0,0,0-1.1-1.589,5,5,0,0,0-1.65-1.029,5.808,5.808,0,0,0-2.08-.364,5.071,5.071,0,0,0-2.23.483,5.708,5.708,0,0,0-1.73,1.274,5.992,5.992,0,0,0-1.12,1.729,4.821,4.821,0,0,0-.39,1.862,5.06,5.06,0,0,0,.24,1.673,3.1,3.1,0,0,0,.61,1.085,1.815,1.815,0,0,0,.62.448,1.725,1.725,0,0,0,.67.14,1.326,1.326,0,0,0,.83-0.392,5.093,5.093,0,0,0,.9-1.092,9.855,9.855,0,0,0,.83-1.624,13.889,13.889,0,0,0,.6-1.988,10.527,10.527,0,0,0,.23-2.184V32.478a4.263,4.263,0,0,1,2.13.546,3.7,3.7,0,0,1,1.44,1.512,5.037,5.037,0,0,1,.52,2.352,3.955,3.955,0,0,1-.44,1.883,4.586,4.586,0,0,1-1.17,1.393,6.432,6.432,0,0,1-1.61.924,8.728,8.728,0,0,1-1.74.5,0.2,0.2,0,0,0-.06.182,0.23,0.23,0,0,0,.1.182A9.313,9.313,0,0,0,7174.48,41.557Zm-5.57-2.772a3.269,3.269,0,0,1-.31-1.533,5.008,5.008,0,0,1,.51-2.268,4.573,4.573,0,0,1,1.42-1.687,4.169,4.169,0,0,1,2.07-.791v0.77a7.673,7.673,0,0,1-.19,1.7,11.034,11.034,0,0,1-.5,1.652,8.778,8.778,0,0,1-.7,1.414,4.4,4.4,0,0,1-.77.98,1.121,1.121,0,0,1-.71.357A0.929,0.929,0,0,1,7168.91,38.785Zm14.1,4.1a0.293,0.293,0,0,0,.24-0.2V42.25h2.93v0.364a0.216,0.216,0,0,0,.27.21,1.083,1.083,0,0,0,.44-0.1,0.314,0.314,0,0,0,.24-0.245c0-.028,0-0.119-0.01-0.273s-0.03-.336-0.04-0.546-0.04-.418-0.05-0.623-0.01-.378-0.01-0.518a0.315,0.315,0,0,1,.03-0.175,0.219,0.219,0,0,1,.08-0.063l0.35-.182a0.15,0.15,0,0,0,.11-0.133,0.158,0.158,0,0,0-.07-0.133,4.747,4.747,0,0,0-.38-0.371c-0.17-.154-0.31-0.268-0.4-0.343a0.266,0.266,0,0,0-.15-0.063,0.247,0.247,0,0,0-.13.077q-0.09.1-.21,0.224c-0.08.084-.15,0.154-0.2,0.21a0.2,0.2,0,0,1-.15.056h-2.51c-0.11-.065-0.24-0.142-0.4-0.231l-0.39-.231c0.03-.131.07-0.261,0.1-0.392s0.06-.266.08-0.406h3.27v0.224a0.221,0.221,0,0,0,.27.224,1.078,1.078,0,0,0,.43-0.1,0.316,0.316,0,0,0,.24-0.217c0-.065,0-0.191-0.01-0.378s-0.02-.4-0.04-0.651-0.02-.5-0.03-0.749-0.02-.471-0.02-0.658a0.357,0.357,0,0,1,.03-0.182,0.224,0.224,0,0,1,.09-0.07c0.05-.028.11-0.058,0.17-0.091a1.294,1.294,0,0,1,.16-0.077c0.18-.075.2-0.168,0.07-0.28q-0.135-.14-0.39-0.357c-0.17-.145-0.3-0.254-0.41-0.329a0.181,0.181,0,0,0-.28.014l-0.21.231q-0.1.133-.18,0.217a0.222,0.222,0,0,1-.15.07h-2.75c-0.12-.075-0.28-0.168-0.47-0.28s-0.35-.2-0.46-0.266a0.143,0.143,0,0,0-.16.014,0.124,0.124,0,0,0-.03.154,1.732,1.732,0,0,1,.12.651c0.02,0.285.02,0.707,0.02,1.267a9.875,9.875,0,0,1-.23,2.338,5.865,5.865,0,0,1-.65,1.673,9.527,9.527,0,0,1-.96,1.337,0.178,0.178,0,0,0,.18.224,6.383,6.383,0,0,0,1.13-1.134,6,6,0,0,0,.88-1.526V40.22c0,0.6-.01,1.134-0.05,1.61s-0.04.775-.04,0.9a0.227,0.227,0,0,0,.07.2,0.281,0.281,0,0,0,.18.049A1.313,1.313,0,0,0,7183.01,42.887Zm8.68-.406a1.113,1.113,0,0,0,.41-0.532,2.263,2.263,0,0,0,.13-0.847c0-.112-0.01-0.331-0.01-0.658s-0.01-.721-0.02-1.183-0.02-.95-0.02-1.463-0.01-1.017-.01-1.512V31.47a0.233,0.233,0,0,1,.16-0.259,1.431,1.431,0,0,1,.29-0.063,0.137,0.137,0,0,0,.15-0.14,0.121,0.121,0,0,0-.11-0.168c-0.1-.028-0.24-0.061-0.4-0.1l-0.51-.112a3.859,3.859,0,0,0-.39-0.07c-0.08-.019-0.12-0.009-0.14.028a0.114,0.114,0,0,0,0,.154,1.547,1.547,0,0,1,.1.658v9.66a0.449,0.449,0,0,1-.09.3,0.383,0.383,0,0,1-.32.105c-0.16,0-.36,0-0.59-0.014s-0.47-.021-0.68-0.035-0.37-.021-0.46-0.021a0.218,0.218,0,0,0-.1.126,0.176,0.176,0,0,0,.04.154,4.564,4.564,0,0,1,.9.161,1.11,1.11,0,0,1,.51.336,2.562,2.562,0,0,1,.35.679A2.994,2.994,0,0,0,7191.69,42.481Zm-10.17-8.022c0.34-.219.66-0.455,0.98-0.707l0.07,0.434a3.644,3.644,0,0,1,.75-0.084h3.13a0.159,0.159,0,0,0,.16-0.119,0.232,0.232,0,0,0-.09-0.231q-0.135-.126-0.33-0.322a2.908,2.908,0,0,0-.33-0.294,0.183,0.183,0,0,0-.27.014c-0.04.047-.1,0.124-0.2,0.231s-0.18.189-.23,0.245a0.173,0.173,0,0,1-.14.056h-1.71a3.987,3.987,0,0,1-.64-0.07q0.525-.434,1.02-0.917a13.463,13.463,0,0,0,.91-1,7.431,7.431,0,0,1,1.48.945,7.707,7.707,0,0,1,1.22,1.253,0.611,0.611,0,0,0,.28.245,0.271,0.271,0,0,0,.24-0.049,0.7,0.7,0,0,0,.21-0.448,0.73,0.73,0,0,0-.2-0.616,3.129,3.129,0,0,0-.79-0.616,9.887,9.887,0,0,0-1.11-.546,10.289,10.289,0,0,0-1.15-.406l0.01-.028A0.365,0.365,0,0,1,7185,31.3a0.6,0.6,0,0,1,.28.056,0.154,0.154,0,0,0,.2-0.084,0.13,0.13,0,0,0-.04-0.2,3.7,3.7,0,0,0-.35-0.259c-0.15-.1-0.3-0.2-0.44-0.294s-0.27-.17-0.36-0.217a0.156,0.156,0,0,0-.14-0.014,0.272,0.272,0,0,0-.09.224,2.146,2.146,0,0,1-.16.49,6.6,6.6,0,0,1-.86,1.274,15.459,15.459,0,0,1-1.27,1.379,12.2,12.2,0,0,1-1.39,1.169,0.169,0.169,0,0,0,.14.238C7180.86,34.882,7181.19,34.679,7181.52,34.459Zm7.89,5.593a0.329,0.329,0,0,0,.23-0.224c0-.112-0.01-0.523-0.04-1.232s-0.03-1.75-.03-3.122V32.968a0.23,0.23,0,0,1,.14-0.252,1.651,1.651,0,0,1,.31-0.056,0.166,0.166,0,0,0,.04-0.322c-0.11-.028-0.24-0.061-0.41-0.1s-0.33-.072-0.5-0.105-0.29-.058-0.39-0.077a0.129,0.129,0,0,0-.14.042,0.1,0.1,0,0,0,0,.14,1.591,1.591,0,0,1,.09.658V35.46c0,0.849,0,1.6-.01,2.254s-0.02,1.169-.04,1.547-0.02.595-.02,0.651a0.246,0.246,0,0,0,.3.252A1.082,1.082,0,0,0,7189.41,40.052Zm-6.16-.014h2.93V41.83h-2.93V40.038Zm-0.38-2.436c0-.112.01-0.224,0.01-0.336V36.944h3.17v0.994h-3.2C7182.86,37.826,7182.86,37.714,7182.87,37.6Zm0.01-1.988h3.17v0.91h-3.17v-0.91Zm19.49,7.259a0.332,0.332,0,0,0,.26-0.231c0-.047-0.01-0.182-0.01-0.406s-0.02-.495-0.03-0.812-0.02-.642-0.03-0.973-0.01-.628-0.01-0.889h4.31a0.156,0.156,0,0,0,.15-0.119,0.216,0.216,0,0,0-.1-0.245,1.876,1.876,0,0,0-.24-0.231c-0.13-.107-0.25-0.217-0.38-0.329a2.308,2.308,0,0,0-.26-0.21,0.168,0.168,0,0,0-.25,0q-0.045.042-.18,0.182c-0.08.093-.18,0.189-0.27,0.287s-0.15.161-.18,0.189a0.211,0.211,0,0,1-.15.056h-2.45V36.664h3.79a0.18,0.18,0,0,0,.19-0.119,0.261,0.261,0,0,0-.09-0.245,2.1,2.1,0,0,0-.23-0.224q-0.165-.154-0.33-0.3c-0.11-.1-0.2-0.166-0.25-0.2a0.188,0.188,0,0,0-.26.014,1.346,1.346,0,0,0-.15.161c-0.08.089-.15,0.177-0.22,0.266s-0.13.147-.16,0.175a0.211,0.211,0,0,1-.15.056h-2.14V33.766h4.31a0.156,0.156,0,0,0,.15-0.119,0.216,0.216,0,0,0-.1-0.245c-0.03-.037-0.12-0.112-0.24-0.224s-0.25-.222-0.38-0.329-0.21-.18-0.26-0.217a0.176,0.176,0,0,0-.25.014,1.287,1.287,0,0,0-.18.175c-0.08.1-.18,0.194-0.27,0.287s-0.15.154-.18,0.182a0.211,0.211,0,0,1-.15.056h-4.22a18.357,18.357,0,0,0,1.02-1.89,0.346,0.346,0,0,1,.19-0.2,0.876,0.876,0,0,1,.22,0,0.232,0.232,0,0,0,.07.014,0.142,0.142,0,0,0,.18-0.112,0.129,0.129,0,0,0-.07-0.2c-0.09-.047-0.23-0.114-0.4-0.2s-0.34-.175-0.51-0.259-0.3-.145-0.39-0.182h-0.01a0.132,0.132,0,0,0-.14.014,0.275,0.275,0,0,0-.05.21v0.2a1.652,1.652,0,0,1-.05.273,14.867,14.867,0,0,1-.7,1.855,19.9,19.9,0,0,1-.98,1.876,17.018,17.018,0,0,1-1.16,1.7,0.18,0.18,0,0,0,.21.2,15.505,15.505,0,0,0,1.19-1.323,17.419,17.419,0,0,0,1.12-1.561h1.14v6.223c-0.01.266-.02,0.551-0.02,0.854s-0.02.593-.03,0.868-0.02.506-.02,0.693-0.01.3-.01,0.336a0.238,0.238,0,0,0,.29.238A1.32,1.32,0,0,0,7202.37,42.873Zm-5.21-.007a0.33,0.33,0,0,0,.23-0.224c0-.056,0-0.257-0.01-0.6s-0.02-.784-0.03-1.316-0.02-1.1-.03-1.715-0.01-1.2-.01-1.771v-3.92c0.41-.607.79-1.223,1.13-1.848a0.547,0.547,0,0,1,.2-0.231,0.464,0.464,0,0,1,.29.035,0.137,0.137,0,0,0,.19-0.112,0.129,0.129,0,0,0-.07-0.182c-0.11-.065-0.24-0.145-0.4-0.238s-0.33-.184-0.49-0.273-0.28-.156-0.37-0.2a0.16,0.16,0,0,0-.16,0,0.211,0.211,0,0,0-.06.238,0.985,0.985,0,0,1-.08.49,15.622,15.622,0,0,1-.89,1.981c-0.38.7-.78,1.4-1.22,2.086s-0.88,1.309-1.3,1.869a0.18,0.18,0,0,0,.21.2c0.36-.383.73-0.8,1.1-1.239s0.74-.912,1.11-1.407v2.744c0,0.448-.01.919-0.02,1.414s-0.02.978-.02,1.449-0.02.9-.03,1.288-0.02.7-.03,0.945-0.01.383-.01,0.42a0.234,0.234,0,0,0,.29.238A1.128,1.128,0,0,0,7197.16,42.866Zm14.44,0a0.342,0.342,0,0,0,.21-0.238V42.152c-0.01-.261-0.02-0.593-0.02-0.994s-0.02-.845-0.03-1.33v-3.4a4.982,4.982,0,0,1,.94.756,4.5,4.5,0,0,1,.71.994,0.3,0.3,0,0,0,.45.2,0.525,0.525,0,0,0,.27-0.434,0.815,0.815,0,0,0-.19-0.63,2.737,2.737,0,0,0-1-.784,7.277,7.277,0,0,0-1.18-.462v-0.5h2.74a0.175,0.175,0,0,0,.18-0.119,0.292,0.292,0,0,0-.09-0.259,3,3,0,0,0-.23-0.217q-0.165-.147-0.33-0.3t-0.24-.21a0.19,0.19,0,0,0-.25.014c-0.03.028-.08,0.084-0.16,0.168s-0.15.17-.22,0.259-0.13.147-.16,0.175a0.189,0.189,0,0,1-.15.07h-1.09V31.246a0.225,0.225,0,0,1,.15-0.252,1.7,1.7,0,0,1,.3-0.056,0.169,0.169,0,0,0,.15-0.154,0.132,0.132,0,0,0-.11-0.168q-0.225-.07-0.63-0.161c-0.26-.061-0.47-0.105-0.62-0.133a0.159,0.159,0,0,0-.14.042,0.1,0.1,0,0,0,0,.14,1.351,1.351,0,0,1,.1.658v3.976h-1.93a4.99,4.99,0,0,1-.86-0.112l0.12,0.6a4.57,4.57,0,0,1,.75-0.07h1.64a13.667,13.667,0,0,1-.73,1.925c-0.31.667-.63,1.3-0.98,1.89a13.179,13.179,0,0,1-.98,1.491,0.18,0.18,0,0,0,.21.2,12.087,12.087,0,0,0,1.45-1.722,14.718,14.718,0,0,0,1.31-2.212v1.218c0,0.476-.01.964-0.01,1.463s-0.03.966-.04,1.4-0.03.793-.03,1.078-0.02.446-.02,0.483q0,0.224.3,0.224A0.851,0.851,0,0,0,7211.6,42.866Zm7.09-.021a0.384,0.384,0,0,0,.22-0.259c0-.056,0-0.224-0.01-0.5s-0.02-.635-0.03-1.064-0.02-.9-0.03-1.4-0.01-1.008-.01-1.512l2.14-.49a0.172,0.172,0,0,0,.15-0.161,0.231,0.231,0,0,0-.14-0.231,1.349,1.349,0,0,0-.27-0.161c-0.14-.07-0.27-0.14-0.4-0.21s-0.22-.119-0.28-0.147a0.2,0.2,0,0,0-.25.07c-0.02.028-.05,0.093-0.11,0.2s-0.1.2-.15,0.3a1.3,1.3,0,0,1-.12.2,0.238,0.238,0,0,1-.12.1l-0.45.1V31.246a0.23,0.23,0,0,1,.14-0.252,1.651,1.651,0,0,1,.31-0.056,0.166,0.166,0,0,0,.04-0.322c-0.11-.028-0.24-0.061-0.41-0.1l-0.5-.112c-0.16-.037-0.29-0.065-0.38-0.084a0.136,0.136,0,0,0-.14.042,0.1,0.1,0,0,0,0,.14,0.9,0.9,0,0,1,.07.245,2.326,2.326,0,0,1,.03.413v6.706l-4.27.994a3.907,3.907,0,0,1-.87.084l0.25,0.574a5.827,5.827,0,0,1,.72-0.252l4.17-.966c0,0.467-.01.952-0.02,1.456s-0.02.975-.02,1.414-0.02.8-.03,1.085-0.02.446-.02,0.483a0.218,0.218,0,0,0,.24.252A0.976,0.976,0,0,0,7218.69,42.845Zm-6.01-8.638q0.3-.385.6-0.854a8.854,8.854,0,0,0,.56-0.945,0.3,0.3,0,0,1,.21-0.168,0.819,0.819,0,0,1,.26.014,0.142,0.142,0,0,0,.18-0.112,0.129,0.129,0,0,0-.07-0.182,4.277,4.277,0,0,0-.39-0.2c-0.16-.075-0.32-0.149-0.47-0.224s-0.28-.131-0.37-0.168a0.125,0.125,0,0,0-.14,0,0.158,0.158,0,0,0-.03.154,0.9,0.9,0,0,1,.01.175,1.4,1.4,0,0,1-.03.259,4.089,4.089,0,0,1-.18.63c-0.08.252-.18,0.511-0.29,0.777s-0.21.513-.31,0.742a4.579,4.579,0,0,1-.27.539,0.22,0.22,0,0,0,.08.133,0.2,0.2,0,0,0,.16.035C7212.32,34.667,7212.49,34.464,7212.68,34.207Zm-2.23.217a1.032,1.032,0,0,0-.01-0.672,2.94,2.94,0,0,0-.66-1.148,6.761,6.761,0,0,0-1.12-.966,0.159,0.159,0,0,0-.14.042,0.178,0.178,0,0,0-.07.154,6.141,6.141,0,0,1,.76,1.211,5.981,5.981,0,0,1,.46,1.379,0.492,0.492,0,0,0,.16.315,0.29,0.29,0,0,0,.23.035A0.531,0.531,0,0,0,7210.45,34.424Zm6.59,2.471a0.906,0.906,0,0,0-.1-0.693,2.644,2.644,0,0,0-.74-0.833,6.435,6.435,0,0,0-1.18-.707,0.165,0.165,0,0,0-.17.224,4.952,4.952,0,0,1,.85,1.022,6.5,6.5,0,0,1,.61,1.232,0.306,0.306,0,0,0,.19.217,0.394,0.394,0,0,0,.26-0.021A0.635,0.635,0,0,0,7217.04,36.9Zm0.23-3.248a0.944,0.944,0,0,0-.15-0.679,2.905,2.905,0,0,0-.77-0.8,6.607,6.607,0,0,0-1.18-.672,0.206,0.206,0,0,0-.13.077,0.212,0.212,0,0,0-.03.161,5.322,5.322,0,0,1,.89.973,5.84,5.84,0,0,1,.67,1.2,0.289,0.289,0,0,0,.44.182A0.592,0.592,0,0,0,7217.27,33.647Zm9.64,8.729h7.77a0.138,0.138,0,0,0,.14-0.119,0.217,0.217,0,0,0-.07-0.231q-0.135-.14-0.42-0.392t-0.48-.392a0.167,0.167,0,0,0-.25,0l-0.63.658a0.219,0.219,0,0,1-.16.056h-1.8v-2.31h3.19a0.161,0.161,0,0,0,.18-0.126,0.286,0.286,0,0,0-.08-0.252q-0.075-.07-0.24-0.217t-0.33-.3q-0.165-.154-0.24-0.21a0.205,0.205,0,0,0-.26.014c-0.02.028-.08,0.084-0.15,0.168s-0.15.17-.22,0.259-0.13.147-.16,0.175a0.222,0.222,0,0,1-.15.07h-1.54V36.972h1.9V37.35a0.208,0.208,0,0,0,.25.21,1.076,1.076,0,0,0,.49-0.1,0.291,0.291,0,0,0,.2-0.238c0-.047-0.01-0.189-0.01-0.427s-0.02-.544-0.03-0.917-0.02-.782-0.03-1.225-0.02-.889-0.03-1.337-0.01-.863-0.01-1.246a0.357,0.357,0,0,1,.03-0.182,0.144,0.144,0,0,1,.08-0.07c0.06-.028.13-0.056,0.19-0.084s0.11-.051.16-0.07c0.17-.093.19-0.191,0.07-0.294-0.08-.084-0.22-0.2-0.39-0.35s-0.32-.257-0.41-0.322a0.187,0.187,0,0,0-.28,0l-0.39.462a0.211,0.211,0,0,1-.15.056h-4.11q-0.21-.112-0.54-0.3l-0.45-.259a0.125,0.125,0,0,0-.15.014,0.139,0.139,0,0,0-.03.154,2.856,2.856,0,0,1,.12.672q0.03,0.476.03,1.232c0,0.551,0,1.1-.01,1.652s-0.02,1.059-.03,1.526-0.02.852-.03,1.155-0.01.483-.01,0.539a0.2,0.2,0,0,0,.25.21,0.876,0.876,0,0,0,.48-0.112,0.3,0.3,0,0,0,.18-0.21V36.972h1.8v2.254h-2.07a4.863,4.863,0,0,1-.85-0.112l0.11,0.6a5.091,5.091,0,0,1,.76-0.07h2.05v2.31h-3.26a4.863,4.863,0,0,1-.85-0.112l0.11,0.6a5.038,5.038,0,0,1,.76-0.07h0Zm-3.73-.994a0.316,0.316,0,0,1-.03-0.259,0.291,0.291,0,0,1,.17-0.133c0.31-.14.66-0.308,1.04-0.5s0.78-.4,1.18-0.623,0.77-.436,1.13-0.651,0.67-.406.92-0.574a0.171,0.171,0,0,0-.15-0.252,10.8,10.8,0,0,1-1.03.49c-0.45.187-.91,0.369-1.39,0.546V35.964h1.83a0.146,0.146,0,0,0,.15-0.133,0.232,0.232,0,0,0-.08-0.231c-0.04-.037-0.11-0.1-0.2-0.175s-0.2-.161-0.29-0.245a1.246,1.246,0,0,0-.21-0.168,0.19,0.19,0,0,0-.27,0,2.21,2.21,0,0,1-.2.231c-0.1.107-.17,0.184-0.22,0.231a0.176,0.176,0,0,1-.15.07h-0.36V32.03h1.84a0.151,0.151,0,0,0,.16-0.14,0.2,0.2,0,0,0-.09-0.224,1.849,1.849,0,0,0-.2-0.182c-0.1-.084-0.19-0.166-0.29-0.245s-0.16-.138-0.21-0.175a0.31,0.31,0,0,0-.14-0.063,0.151,0.151,0,0,0-.12.077q-0.06.056-.21,0.224c-0.09.112-.17,0.191-0.21,0.238a0.225,0.225,0,0,1-.16.07h-2.46a3.923,3.923,0,0,1-.85-0.126l0.11,0.616a4.546,4.546,0,0,1,.74-0.07h1.23v3.514h-1.13a4.857,4.857,0,0,1-.87-0.112l0.13,0.6a4.546,4.546,0,0,1,.74-0.07h1.13V39.73l-0.71.21c-0.23.065-.42,0.121-0.59,0.168a2.791,2.791,0,0,1-.61.077,0.286,0.286,0,0,0-.27.091,0.108,0.108,0,0,0,.01.14c0.08,0.093.17,0.217,0.3,0.371s0.24,0.3.37,0.448,0.21,0.254.27,0.329a0.128,0.128,0,0,0,.2.028,0.142,0.142,0,0,0,.05-0.21h0Zm7.83-7.084h1.9v2.254h-1.9V34.3Zm0-2.66h1.9v2.24h-1.9v-2.24Zm-2.66,2.66h1.8v2.254h-1.8V34.3Zm0-2.66h1.8v2.24h-1.8v-2.24Zm9.36,8.645a11.34,11.34,0,0,0,.77-4.053h4.01V38.3h-1.89c-0.09-.056-0.2-0.121-0.35-0.2s-0.28-.147-0.41-0.217-0.23-.119-0.29-0.147a0.118,0.118,0,0,0-.16.014,0.1,0.1,0,0,0-.02.14,1.913,1.913,0,0,1,.11.455,9.678,9.678,0,0,1,.04,1.127c0,0.877-.02,1.608-0.05,2.191s-0.05.936-.05,1.057a0.229,0.229,0,0,0,.08.2,0.312,0.312,0,0,0,.17.049,1.285,1.285,0,0,0,.55-0.105,0.3,0.3,0,0,0,.22-0.259V42.222h5.17V42.67a0.216,0.216,0,0,0,.27.21,1.074,1.074,0,0,0,.53-0.119,0.329,0.329,0,0,0,.21-0.259q0-.07-0.03-0.546t-0.06-1.211c-0.02-.49-0.02-1.006-0.02-1.547a0.392,0.392,0,0,1,.02-0.182,0.224,0.224,0,0,1,.09-0.07,2.253,2.253,0,0,0,.22-0.1,1.965,1.965,0,0,0,.21-0.112,0.166,0.166,0,0,0,.12-0.14,0.184,0.184,0,0,0-.06-0.14c-0.06-.047-0.15-0.124-0.29-0.231s-0.27-.212-0.4-0.315-0.22-.168-0.26-0.2a0.194,0.194,0,0,0-.3.028c-0.05.056-.11,0.135-0.2,0.238s-0.17.191-.23,0.266a0.219,0.219,0,0,1-.16.056h-1.89V36.23h4.96a0.146,0.146,0,0,0,.15-0.133,0.232,0.232,0,0,0-.08-0.231c-0.04-.037-0.12-0.114-0.26-0.231s-0.27-.233-0.41-0.35a1.978,1.978,0,0,0-.27-0.217,0.178,0.178,0,0,0-.26,0c-0.02.028-.07,0.089-0.14,0.182s-0.15.187-.22,0.28-0.12.159-.15,0.2a0.267,0.267,0,0,1-.21.084h-3.11V34.676a0.222,0.222,0,0,1,.16-0.252,1.778,1.778,0,0,1,.29-0.056,0.179,0.179,0,0,0,.16-0.154,0.164,0.164,0,0,0-.12-0.168q-0.15-.042-0.42-0.1c-0.19-.042-0.37-0.084-0.55-0.126a3.172,3.172,0,0,0-.43-0.077,0.131,0.131,0,0,0-.14.028,0.2,0.2,0,0,0,0,.154,1.934,1.934,0,0,1,.16.994v0.9h-3.99V33.416h7.8v0.476a0.208,0.208,0,0,0,.26.21,1.755,1.755,0,0,0,.48-0.084,0.313,0.313,0,0,0,.28-0.238c0-.037-0.01-0.14-0.02-0.308s-0.02-.359-0.04-0.574-0.03-.427-0.04-0.637-0.01-.376-0.01-0.5a0.392,0.392,0,0,1,.02-0.182,0.224,0.224,0,0,1,.09-0.07q0.21-.1.36-0.182a0.129,0.129,0,0,0,.11-0.119,0.158,0.158,0,0,0-.07-0.133c-0.08-.084-0.22-0.2-0.4-0.357s-0.33-.268-0.44-0.343a0.193,0.193,0,0,0-.28.014c-0.04.056-.11,0.128-0.19,0.217a2.343,2.343,0,0,0-.21.231,0.158,0.158,0,0,1-.14.07h-7.38c-0.15-.084-0.34-0.187-0.56-0.308s-0.39-.21-0.49-0.266a0.125,0.125,0,0,0-.15.014,0.131,0.131,0,0,0-.03.154,1.54,1.54,0,0,1,.07.336,4.312,4.312,0,0,1,.06.651c0.01,0.285.03,0.667,0.04,1.148s0.01,1.094.01,1.841a28.673,28.673,0,0,1-.13,2.968,15.458,15.458,0,0,1-.37,2.247,8.679,8.679,0,0,1-.63,1.715,9.576,9.576,0,0,1-.84,1.372,0.159,0.159,0,0,0,.04.147,0.2,0.2,0,0,0,.17.049A7.918,7.918,0,0,0,7237.71,40.283Zm2.73-1.561h5.17V41.8h-5.17v-3.08Zm-1.94-7.392h7.8V33h-7.8V31.33Zm16.3,11.529a0.313,0.313,0,0,0,.19-0.217V41.9h5.67v0.616a0.216,0.216,0,0,0,.27.21,0.92,0.92,0,0,0,.55-0.133,0.364,0.364,0,0,0,.17-0.245c0-.047,0-0.215-0.01-0.5s-0.02-.665-0.03-1.127-0.02-.968-0.03-1.519-0.03-1.108-.04-1.673-0.01-1.094-.01-1.589V34.718a0.357,0.357,0,0,1,.03-0.182,0.144,0.144,0,0,1,.08-0.07c0.06-.028.12-0.058,0.2-0.091a2.293,2.293,0,0,0,.22-0.1,0.153,0.153,0,0,0,.04-0.28,4.977,4.977,0,0,0-.4-0.343c-0.19-.154-0.34-0.273-0.44-0.357a0.18,0.18,0,0,0-.28.014c-0.05.065-.12,0.138-0.18,0.217s-0.14.156-.21,0.231a0.17,0.17,0,0,1-.14.07h-1.68V31.708h3.5a0.156,0.156,0,0,0,.17-0.119,0.223,0.223,0,0,0-.09-0.245,4.8,4.8,0,0,0-.39-0.385c-0.18-.163-0.31-0.278-0.4-0.343a0.172,0.172,0,0,0-.26.014c-0.04.047-.13,0.145-0.26,0.294s-0.22.252-.27,0.308a0.211,0.211,0,0,1-.15.056h-6.53a4.863,4.863,0,0,1-.85-0.112l0.11,0.6a4.793,4.793,0,0,1,.74-0.07h2.13v2.114h-1.05c-0.14-.084-0.32-0.187-0.53-0.308s-0.37-.205-0.46-0.252a0.118,0.118,0,0,0-.16.014,0.137,0.137,0,0,0-.02.14,1.4,1.4,0,0,1,.08.3c0.02,0.126.03,0.313,0.05,0.56s0.02,0.59.02,1.029c0,0.9-.01,1.773-0.02,2.632s-0.03,1.638-.05,2.338-0.04,1.269-.05,1.708-0.02.686-.02,0.742a0.242,0.242,0,0,0,.29.252A0.933,0.933,0,0,0,7254.8,42.859Zm0.19-8.617h1.23c0,0.616-.02,1.134-0.05,1.554a6.857,6.857,0,0,1-.18,1.085,3.335,3.335,0,0,1-.34.84,8.294,8.294,0,0,1-.56.819,0.165,0.165,0,0,0,.22.182,5.985,5.985,0,0,0,.94-1.008,3.907,3.907,0,0,0,.6-1.351,8.783,8.783,0,0,0,.21-2.121h0.87v2.8a0.662,0.662,0,0,0,.7.728,4.986,4.986,0,0,0,.75,0,4.92,4.92,0,0,0,.71-0.1,0.841,0.841,0,0,0,.44-0.2,0.454,0.454,0,0,0,.12-0.315,0.321,0.321,0,0,0-.23-0.322,0.455,0.455,0,0,1-.26-0.336,4.367,4.367,0,0,1-.12-0.812,0.179,0.179,0,0,0-.29-0.014c-0.01.121-.04,0.289-0.08,0.5s-0.08.364-.1,0.448a0.431,0.431,0,0,1-.17.245,0.656,0.656,0,0,1-.31.063,0.285,0.285,0,0,1-.32-0.322V34.242h1.89V39.03h-5.67V34.242Zm0,5.208h5.67v2.03h-5.67V39.45Zm-2.72,3.276a0.56,0.56,0,0,0,.13-0.49,2.45,2.45,0,0,0-.09-0.308q-0.06-.168-0.15-0.364a8.818,8.818,0,0,1-.31-0.917,1.952,1.952,0,0,1-.05-0.987q0.045-.224.21-0.735c0.1-.341.22-0.735,0.37-1.183s0.29-.91.45-1.386,0.29-.919.43-1.33,0.25-.754.34-1.029,0.15-.436.17-0.483a0.193,0.193,0,0,0-.28-0.084c-0.02.056-.07,0.21-0.17,0.462s-0.21.56-.35,0.924-0.29.754-.47,1.169-0.34.819-.51,1.211-0.34.735-.5,1.029a3.415,3.415,0,0,1-.41.637,0.685,0.685,0,0,1-.44.224,4.737,4.737,0,0,1-.66.014h-0.1a0.173,0.173,0,0,0-.09.126,0.171,0.171,0,0,0,.03.154,3.7,3.7,0,0,1,.93.231,0.742,0.742,0,0,1,.35.6,6.3,6.3,0,0,1,.08,1.036c0,0.392,0,.719-0.01.98a1.6,1.6,0,0,0-.02.2v0.14a0.415,0.415,0,0,0,.14.336,0.678,0.678,0,0,0,.47.084A0.7,0.7,0,0,0,7252.27,42.726Zm0.58-10.283a0.921,0.921,0,0,0-.24-0.637,2.6,2.6,0,0,0-.9-0.637,6.023,6.023,0,0,0-1.17-.385,0.184,0.184,0,0,0-.13.266,4.1,4.1,0,0,1,.93.693,4.651,4.651,0,0,1,.71.917,0.665,0.665,0,0,0,.29.3,0.28,0.28,0,0,0,.26-0.035A0.586,0.586,0,0,0,7252.85,32.443Zm-0.83,3.3a0.8,0.8,0,0,0-.15-0.679,2.007,2.007,0,0,0-.82-0.658,6.013,6.013,0,0,0-1.11-.392,0.233,0.233,0,0,0-.12.1,0.223,0.223,0,0,0-.01.161,3.58,3.58,0,0,1,.78.679,4.287,4.287,0,0,1,.61.861,0.82,0.82,0,0,0,.26.322,0.3,0.3,0,0,0,.27.014A0.531,0.531,0,0,0,7252.02,35.747Zm5.04-4.039h0.87v2.114h-0.87V31.708Zm7.82,9.3a12.7,12.7,0,0,0,.83-2.653,16.481,16.481,0,0,0,.34-3.143h3.15c-0.08.215-.19,0.45-0.3,0.707s-0.24.5-.35,0.728-0.22.418-.3,0.567h-0.49c-0.15,0-.29,0-0.41-0.014a2.143,2.143,0,0,1-.38-0.028c-0.11-.019-0.2-0.033-0.28-0.042a0.422,0.422,0,0,0-.23,0,0.13,0.13,0,0,0-.02.154,3.881,3.881,0,0,1,.18.413c0.08,0.182.15,0.357,0.23,0.525s0.13,0.294.17,0.378a0.127,0.127,0,0,0,.18.07,0.132,0.132,0,0,0,.11-0.168c-0.03-.243.06-0.369,0.25-0.378,0.32-.037.72-0.091,1.21-0.161l1.57-.224c0.56-.079,1.09-0.161,1.61-0.245s0.96-.159,1.32-0.224c0.13,0.14.26,0.287,0.4,0.441s0.25,0.315.37,0.483a0.482,0.482,0,0,0,.3.21,0.349,0.349,0,0,0,.26-0.084,0.633,0.633,0,0,0,.2-0.5,1.006,1.006,0,0,0-.24-0.679,3.525,3.525,0,0,0-1.15-.826,10.32,10.32,0,0,0-1.89-.714,0.167,0.167,0,0,0-.11.252,7.9,7.9,0,0,1,1.56,1.12c-0.38.028-.81,0.056-1.3,0.084s-0.99.054-1.5,0.077l-1.45.063c0.16-.159.35-0.355,0.56-0.588s0.43-.474.65-0.721,0.41-.474.57-0.679h5.42a0.144,0.144,0,0,0,.15-0.126,0.254,0.254,0,0,0-.08-0.238q-0.09-.084-0.27-0.245c-0.13-.107-0.25-0.215-0.37-0.322a2.694,2.694,0,0,0-.3-0.231,0.181,0.181,0,0,0-.28.014q-0.06.084-.24,0.308c-0.12.149-.2,0.261-0.25,0.336a0.267,0.267,0,0,1-.21.084h-8.02V33.57h7.59v0.294a0.212,0.212,0,0,0,.26.21,1.755,1.755,0,0,0,.48-0.084,0.3,0.3,0,0,0,.28-0.224q0-.2-0.06-0.714c-0.03-.345-0.05-0.728-0.05-1.148a0.315,0.315,0,0,1,.03-0.175,0.158,0.158,0,0,1,.08-0.063q0.18-.1.36-0.182a0.2,0.2,0,0,0,.13-0.147,0.134,0.134,0,0,0-.07-0.147q-0.075-.07-0.24-0.2c-0.11-.089-0.23-0.177-0.34-0.266s-0.21-.152-0.27-0.189a0.218,0.218,0,0,0-.3.014c-0.12.149-.25,0.3-0.38,0.448a0.169,0.169,0,0,1-.15.056h-7.21c-0.15-.084-0.34-0.189-0.56-0.315s-0.39-.217-0.49-0.273a0.158,0.158,0,0,0-.17.014,0.123,0.123,0,0,0-.01.154,2.082,2.082,0,0,1,.1.5c0.03,0.224.04,0.551,0.06,0.98s0.02,1.017.03,1.764a24.518,24.518,0,0,1-.44,5.453,11.143,11.143,0,0,1-1.29,3.465c0,0.131.07,0.187,0.22,0.168A7.216,7.216,0,0,0,7264.88,41Zm1.3,1.372h10.05a0.146,0.146,0,0,0,.15-0.133,0.237,0.237,0,0,0-.1-0.245c-0.05-.056-0.14-0.138-0.26-0.245s-0.25-.215-0.37-0.322-0.23-.184-0.3-0.231a0.175,0.175,0,0,0-.27.028c-0.05.056-.13,0.156-0.25,0.3s-0.2.254-.25,0.329a0.2,0.2,0,0,1-.09.07,0.343,0.343,0,0,1-.11.014h-3.51V40.318h3.89a0.156,0.156,0,0,0,.17-0.119,0.247,0.247,0,0,0-.09-0.259q-0.12-.126-0.39-0.371a3.788,3.788,0,0,0-.42-0.343,0.142,0.142,0,0,0-.24.014,2.151,2.151,0,0,0-.15.168c-0.08.084-.15,0.168-0.23,0.252l-0.15.182a0.211,0.211,0,0,1-.15.056h-2.24v-0.77a0.232,0.232,0,0,1,.14-0.259,1.384,1.384,0,0,1,.3-0.063,0.141,0.141,0,0,0,.16-0.14,0.167,0.167,0,0,0-.11-0.168,4.24,4.24,0,0,0-.45-0.112c-0.18-.037-0.36-0.075-0.53-0.112a4.146,4.146,0,0,0-.42-0.07,0.184,0.184,0,0,0-.14.028,0.114,0.114,0,0,0,0,.154,1.475,1.475,0,0,1,.09.658V39.9h-2.66a4.863,4.863,0,0,1-.85-0.112l0.11,0.6a4.793,4.793,0,0,1,.74-0.07h2.66v1.624h-3.75a4.863,4.863,0,0,1-.85-0.112l0.11,0.616a5.038,5.038,0,0,1,.76-0.07h0Zm-0.13-10.906h7.59v1.68h-7.59V31.47Zm-118.93,40.4a0.377,0.377,0,0,0,.23-0.28V70.458h3.41v0.688a0.2,0.2,0,0,0,.09.192,0.571,0.571,0,0,0,.24.048,1.02,1.02,0,0,0,.59-0.152,0.4,0.4,0,0,0,.21-0.28c0-.053-0.01-0.325-0.02-0.816s-0.04-1.133-.06-1.928-0.03-1.666-.03-2.616a0.232,0.232,0,0,1,.13-0.208c0.16-.085.3-0.165,0.43-0.24q0.255-.128.03-0.336c-0.09-.085-0.25-0.213-0.45-0.384s-0.38-.293-0.49-0.368a0.217,0.217,0,0,0-.31.032q-0.06.08-.21,0.24c-0.1.107-.18,0.192-0.23,0.256a0.268,0.268,0,0,1-.18.064h-2.96q-0.135-.08-0.36-0.208c-0.16-.085-0.31-0.171-0.46-0.256s-0.26-.144-0.33-0.176a0.13,0.13,0,0,0-.18.016,0.127,0.127,0,0,0-.03.16,2.164,2.164,0,0,1,.14.656c0.02,0.309.04,0.811,0.04,1.5,0,0.608-.01,1.214-0.02,1.816s-0.02,1.163-.04,1.68-0.03.947-.04,1.288-0.02.544-.02,0.608a0.257,0.257,0,0,0,.31.272A1.137,1.137,0,0,0,7147.12,71.874Zm6.83,1.592a2.583,2.583,0,0,0,1.08-.992,5.845,5.845,0,0,0,.68-1.88,22.069,22.069,0,0,0,.35-3.016c0.07-1.216.1-2.688,0.1-4.416a0.253,0.253,0,0,1,.13-0.24c0.09-.042.18-0.088,0.29-0.136s0.2-.093.29-0.136q0.27-.128.06-0.3a2.932,2.932,0,0,0-.31-0.3c-0.14-.122-0.29-0.248-0.43-0.376s-0.26-.218-0.33-0.272a0.2,0.2,0,0,0-.32.016,4.01,4.01,0,0,0-.28.3c-0.11.128-.21,0.235-0.28,0.32a0.235,0.235,0,0,1-.18.064h-7.95c0.15-.267.29-0.531,0.41-0.792s0.24-.525.34-0.792a0.485,0.485,0,0,1,.2-0.264,0.717,0.717,0,0,1,.33-0.008,0.162,0.162,0,0,0,.21-0.128,0.277,0.277,0,0,0,0-.128,0.107,0.107,0,0,0-.1-0.08c-0.1-.053-0.26-0.125-0.45-0.216s-0.4-.181-0.59-0.272-0.36-.157-0.48-0.2a0.106,0.106,0,0,0-.16.016,0.33,0.33,0,0,0-.04.224,1.944,1.944,0,0,1,0,.344,2.96,2.96,0,0,1-.12.536,15.554,15.554,0,0,1-1.55,3.528,21.949,21.949,0,0,1-2.14,2.936,0.177,0.177,0,0,0,.05.168,0.213,0.213,0,0,0,.17.072,13.114,13.114,0,0,0,1.99-2.032,20.328,20.328,0,0,0,1.68-2.432h8.51q0,2.416-.09,4.08t-0.24,2.728a9.107,9.107,0,0,1-.36,1.664,2.578,2.578,0,0,1-.45.864,1.1,1.1,0,0,1-.5.336,2.631,2.631,0,0,1-.52.088h-0.1a3.483,3.483,0,0,1-.67-0.04c-0.27-.037-0.52-0.083-0.77-0.136s-0.43-.1-0.56-0.128a0.74,0.74,0,0,0-.09-0.016,0.187,0.187,0,0,0-.12.128,0.2,0.2,0,0,0,.04.192,4.4,4.4,0,0,1,1.12.5,1.452,1.452,0,0,1,.59.976A4.161,4.161,0,0,0,7153.95,73.466Zm-6.6-5.712h3.41v2.224h-3.41V67.754Zm0-2.624h3.41v2.144h-3.41V65.13Zm15.87,8.552a0.341,0.341,0,0,0,.24-0.264c0-.064-0.01-0.235-0.02-0.512s-0.02-.626-0.02-1.048-0.01-.869-0.02-1.344-0.02-.941-0.02-1.4v-1.04a6.51,6.51,0,0,1,.98,1,7.1,7.1,0,0,1,.8,1.256,0.753,0.753,0,0,0,.25.328,0.362,0.362,0,0,0,.29.024,0.619,0.619,0,0,0,.36-0.5,1.046,1.046,0,0,0-.17-0.808,2.447,2.447,0,0,0-.64-0.656,9.278,9.278,0,0,0-.93-0.6,9.019,9.019,0,0,0-.94-0.456V67.13h3.26a0.178,0.178,0,0,0,.2-0.136,0.264,0.264,0,0,0-.1-0.28,2.175,2.175,0,0,0-.23-0.232c-0.11-.1-0.23-0.2-0.34-0.3a1.467,1.467,0,0,0-.28-0.216,0.2,0.2,0,0,0-.29,0,2.585,2.585,0,0,1-.27.32c-0.14.15-.23,0.251-0.29,0.3a0.227,0.227,0,0,1-.17.064h-1.49V65.882a0.261,0.261,0,0,1,.17-0.288,1.755,1.755,0,0,1,.34-0.064,0.168,0.168,0,0,0,.16-0.176,0.151,0.151,0,0,0-.13-0.192c-0.17-.053-0.4-0.112-0.7-0.176s-0.53-.106-0.7-0.128a0.134,0.134,0,0,0-.16.208,1.632,1.632,0,0,1,.11.752V66.65h-2.63a5.722,5.722,0,0,1-.99-0.128L7159,67.21a5.213,5.213,0,0,1,.84-0.08h2.45a16.945,16.945,0,0,1-1.71,2.72,18.85,18.85,0,0,1-2.02,2.272,0.217,0.217,0,0,0,.23.256,15.708,15.708,0,0,0,1.95-1.656,15.123,15.123,0,0,0,1.73-2.04V69.1c0,0.459-.01.936-0.02,1.432s-0.02.963-.03,1.4-0.02.8-.03,1.088-0.02.459-.02,0.512a0.273,0.273,0,0,0,.34.272A1.125,1.125,0,0,0,7163.22,73.682Zm5.89-1.888a13.263,13.263,0,0,0,3.33-2.968,0.485,0.485,0,0,1,.62-0.128,0.177,0.177,0,0,0,.22-0.08,0.147,0.147,0,0,0-.03-0.224,3.472,3.472,0,0,0-.39-0.336c-0.18-.138-0.35-0.275-0.52-0.408s-0.3-.232-0.4-0.3a0.124,0.124,0,0,0-.16-0.032,0.359,0.359,0,0,0-.14.336,1.845,1.845,0,0,1-.32.736,10.374,10.374,0,0,1-1.6,1.824,12.79,12.79,0,0,1-2.33,1.7,13.809,13.809,0,0,1-2.92,1.256,0.21,0.21,0,0,0,.08.32A13.258,13.258,0,0,0,7169.11,71.794Zm-0.9-4.32a15.986,15.986,0,0,0,2.19-1.336,11.9,11.9,0,0,0,1.84-1.616,0.566,0.566,0,0,1,.63-0.128,0.164,0.164,0,0,0,.22-0.08,0.141,0.141,0,0,0-.03-0.224,4.285,4.285,0,0,0-.38-0.32c-0.16-.128-0.33-0.253-0.49-0.376l-0.39-.28a0.111,0.111,0,0,0-.15-0.032,0.144,0.144,0,0,0-.09.112c-0.02.053-.04,0.136-0.07,0.248a2.011,2.011,0,0,1-.25.472,7.789,7.789,0,0,1-.92,1.048,17.07,17.07,0,0,1-1.37,1.184c-0.51.4-1.05,0.776-1.59,1.128a14.291,14.291,0,0,1-1.6.9,0.189,0.189,0,0,0,.13.288A18.091,18.091,0,0,0,7168.21,67.474Zm-0.37-3.416a17.374,17.374,0,0,0,1.83-1.592,15.521,15.521,0,0,0,1.47-1.72,0.513,0.513,0,0,1,.61-0.176,0.18,0.18,0,0,0,.22-0.1,0.205,0.205,0,0,0-.06-0.24q-0.15-.1-0.42-0.264l-0.54-.336c-0.18-.112-0.33-0.194-0.43-0.248a0.143,0.143,0,0,0-.16,0,0.316,0.316,0,0,0-.12.3,1.823,1.823,0,0,1-.22.656,8.029,8.029,0,0,1-.77,1.176,15.977,15.977,0,0,1-1.11,1.3q-0.615.648-1.26,1.224a14.488,14.488,0,0,1-1.26.992,0.224,0.224,0,0,0,.21.272A13.593,13.593,0,0,0,7167.84,64.058Zm-6.68-2.792q1.2-.136,2.4-0.352c0.8-.144,1.54-0.3,2.24-0.456a0.994,0.994,0,0,1,.52.048,0.211,0.211,0,0,0,.29-0.08,0.14,0.14,0,0,0-.05-0.24c-0.11-.085-0.3-0.218-0.54-0.4s-0.44-.32-0.59-0.416a0.256,0.256,0,0,0-.18-0.064,0.276,0.276,0,0,0-.19.144,1.119,1.119,0,0,1-.48.3,8.776,8.776,0,0,1-1.17.432q-0.69.208-1.47,0.392c-0.52.123-1.05,0.229-1.57,0.32s-1.01.168-1.45,0.232a0.165,0.165,0,0,0-.06.16,0.19,0.19,0,0,0,.09.16C7159.63,61.418,7160.37,61.357,7161.16,61.266Zm3.94,2.952q0.39-.448.78-0.936c0.25-.325.46-0.621,0.64-0.888a0.369,0.369,0,0,1,.19-0.192,0.563,0.563,0,0,1,.27,0,0.166,0.166,0,0,0,.22-0.112,0.174,0.174,0,0,0-.08-0.224c-0.17-.1-0.39-0.224-0.67-0.384s-0.49-.277-0.64-0.352a0.16,0.16,0,0,0-.17,0,0.259,0.259,0,0,0-.06.264,1.328,1.328,0,0,1-.07.52q-0.135.416-.36,0.944c-0.16.352-.32,0.7-0.5,1.032s-0.34.627-.49,0.872c0,0.149.09,0.213,0.26,0.192C7164.61,64.762,7164.84,64.517,7165.1,64.218Zm-1.55-.2a1.109,1.109,0,0,0,.04-0.744,2.427,2.427,0,0,0-.68-1.1,5.984,5.984,0,0,0-1.03-.8,0.2,0.2,0,0,0-.24.224,4.969,4.969,0,0,1,.67,1.224,6.572,6.572,0,0,1,.35,1.24,0.37,0.37,0,0,0,.17.3,0.493,0.493,0,0,0,.25.032A0.564,0.564,0,0,0,7163.55,64.018Zm-2.39.432a1.055,1.055,0,0,0-.05-0.808,2.346,2.346,0,0,0-.79-1.008,6.271,6.271,0,0,0-1.07-.672,0.211,0.211,0,0,0-.22.256,4.091,4.091,0,0,1,.79,1.1,6.867,6.867,0,0,1,.44,1.176,0.478,0.478,0,0,0,.21.32,0.319,0.319,0,0,0,.24.032A0.685,0.685,0,0,0,7161.16,64.45Zm35.14,12.125a24.551,24.551,0,0,0,3.78-.735,1.165,1.165,0,0,0,.98-0.8,1.307,1.307,0,0,0-.86-1.095,4,4,0,0,0-.85-0.405,1.452,1.452,0,0,0-.8.105,18.122,18.122,0,0,1-3.01.75,20.373,20.373,0,0,1-3.32.27,14.926,14.926,0,0,1-4.53-.54,3.585,3.585,0,0,1-2.16-1.545,3.357,3.357,0,0,1-.21-2.415,0.5,0.5,0,0,0-.3-0.315,0.64,0.64,0,0,0-.45.015,4.969,4.969,0,0,0-.42,2.3,4.1,4.1,0,0,0,.86,2.28,5.488,5.488,0,0,0,2.52,1.725,12.93,12.93,0,0,0,4.54.66A35.018,35.018,0,0,0,7196.3,76.575Zm-4.23-15.12a14.607,14.607,0,0,1,2.51-.345c0.83-.04,1.6-0.06,2.32-0.06h0.15a1.26,1.26,0,0,0,1.23-.48,1.293,1.293,0,0,0-.54-1.32,1.921,1.921,0,0,0-.76-0.63,2.673,2.673,0,0,0-1.19.03c-0.7.1-1.52,0.175-2.47,0.225a21.985,21.985,0,0,1-2.82-.03,9.034,9.034,0,0,1-2.39-.465,1.733,1.733,0,0,1-1.2-1.08,0.3,0.3,0,0,0-.3-0.075,0.546,0.546,0,0,0-.3.2,2.266,2.266,0,0,0,.71,1.5,4.346,4.346,0,0,0,1.45.885,9.912,9.912,0,0,0,1.64.465c0.53,0.1.95,0.17,1.27,0.21-0.32.2-.68,0.445-1.09,0.735s-0.74.515-.98,0.675a0.381,0.381,0,0,0,.33.54A8.437,8.437,0,0,1,7192.07,61.455Zm25.28,16.98a1.435,1.435,0,0,0,.97-0.765,29.149,29.149,0,0,0,1.35-2.67c0.52-1.14,1.07-2.4,1.64-3.78s1.13-2.775,1.68-4.185,1.03-2.715,1.45-3.915a9.384,9.384,0,0,1,2.16-.27,1.519,1.519,0,0,1,1.44.675,3.032,3.032,0,0,1,.39,1.545,13.614,13.614,0,0,1-.4,3.225,23.668,23.668,0,0,1-.96,3.075,17.719,17.719,0,0,1-1.04,2.25,1.316,1.316,0,0,1-.64.69,1.837,1.837,0,0,1-.83.06,7.1,7.1,0,0,1-1.44-.315q-0.81-.255-1.32-0.405a0.394,0.394,0,0,0-.27.57,9.629,9.629,0,0,1,1.47.765,2.038,2.038,0,0,1,.75.915,3.774,3.774,0,0,0,.47.855,0.832,0.832,0,0,0,.7.285,2.74,2.74,0,0,0,1.74-.615,4.669,4.669,0,0,0,1.32-1.875,29.975,29.975,0,0,0,1.46-4.29,20.561,20.561,0,0,0,.67-5.34,3.257,3.257,0,0,0-.88-2.34,3.514,3.514,0,0,0-2.66-.93,7.608,7.608,0,0,0-.81.045q-0.42.045-.87,0.1c0.16-.5.31-0.955,0.44-1.365s0.23-.755.31-1.035a1.884,1.884,0,0,1,.36-0.7,5.123,5.123,0,0,1,.51-0.525,0.723,0.723,0,0,0,.12-1.02,2.12,2.12,0,0,0-.96-0.87,4.88,4.88,0,0,0-1.29-.33,4.41,4.41,0,0,0-1.26,0,0.4,0.4,0,0,0-.06.63,4.861,4.861,0,0,1,.57.045,0.867,0.867,0,0,1,.51.2,1.052,1.052,0,0,1,.24,1.17,17.558,17.558,0,0,1-.4,1.8c-0.19.7-.43,1.46-0.71,2.28-0.78.14-1.54,0.285-2.29,0.435a10.6,10.6,0,0,1-2.06.225,1.439,1.439,0,0,1-1.56-.87,0.387,0.387,0,0,0-.6.12,3.591,3.591,0,0,0,.21,1.065,3.013,3.013,0,0,0,.68,1.14,1.51,1.51,0,0,0,1.15.5,5.706,5.706,0,0,0,1.59-.36q1.08-.36,2.34-0.75c-0.4,1.1-.84,2.235-1.33,3.405s-1,2.305-1.53,3.405-1.06,2.105-1.58,3.015a20.379,20.379,0,0,1-1.47,2.265,2.131,2.131,0,0,0-.3,2.22A0.7,0.7,0,0,0,7217.35,78.435Zm22.95-8.43a2.924,2.924,0,0,0,.64-2.085,3.782,3.782,0,0,0-.93-2.43,9.992,9.992,0,0,0-2.41-2.085,24.536,24.536,0,0,0-3.17-1.7,0.393,0.393,0,0,0-.36.51,10.957,10.957,0,0,1,1.41.99,15.326,15.326,0,0,1,1.52,1.41,7.54,7.54,0,0,1,1.17,1.59,2.543,2.543,0,0,1,.34,1.53,0.956,0.956,0,0,1-.61.84,3.462,3.462,0,0,1-1.31.255,14.093,14.093,0,0,1-1.47-.045,0.4,0.4,0,0,0-.09.63,5.625,5.625,0,0,1,1.59.24,1.872,1.872,0,0,1,.78.6,1.418,1.418,0,0,0,.66.555,1.548,1.548,0,0,0,.63.075A3.085,3.085,0,0,0,7240.3,70.005Zm26.13,8.04a10.986,10.986,0,0,0,2.17-2.19,10.361,10.361,0,0,0,1.58-3.135,14.364,14.364,0,0,0,.58-4.35c0-.7-0.02-1.4-0.07-2.115s-0.1-1.4-.14-2.085c0.64-.12,1.29-0.265,1.94-0.435a17.478,17.478,0,0,0,1.9-.615,1.377,1.377,0,0,0,.86-0.7,0.9,0.9,0,0,0-.23-0.915,1.161,1.161,0,0,0-.45-0.405,2.681,2.681,0,0,0-.87-0.2,3.534,3.534,0,0,1-1.05-.345q-0.69-.315-1.11-0.495a0.372,0.372,0,0,0-.33.54c0.2,0.12.4,0.235,0.59,0.345s0.34,0.205.46,0.285a0.4,0.4,0,0,1,.2.285,0.256,0.256,0,0,1-.14.255,4.366,4.366,0,0,1-.81.39,9.943,9.943,0,0,1-1.08.33,25.757,25.757,0,0,1,.02-2.655,4.32,4.32,0,0,1,.52-1.965,0.842,0.842,0,0,0-.13-1.08,2.142,2.142,0,0,0-1.1-.66,3.73,3.73,0,0,0-1.18-.135,4.393,4.393,0,0,0-1.19.165,0.355,0.355,0,0,0,0,.6h0.12q0.21,0,.45.015a0.861,0.861,0,0,1,.39.105,0.952,0.952,0,0,1,.3,1.05,20.438,20.438,0,0,0-.16,2.625c0.01,0.73.04,1.485,0.1,2.265q-0.78.12-1.59,0.18t-1.53.06a9.138,9.138,0,0,1-1.23-.09,3.05,3.05,0,0,1-1.23-.45,2.24,2.24,0,0,1-.87-1.14,0.383,0.383,0,0,0-.6.15,3.61,3.61,0,0,0,1.37,2.265,4.4,4.4,0,0,0,2.71.795q0.75,0,1.53-.03t1.56-.12q0.09,1.53.09,3.87a15.79,15.79,0,0,1-.6,4.62,10.081,10.081,0,0,1-1.74,3.375,13.005,13.005,0,0,1-2.79,2.565,0.5,0.5,0,0,0,.39.69A17.971,17.971,0,0,0,7266.43,78.045Zm-8.12-1.98a1.145,1.145,0,0,0-.12-0.885,4.561,4.561,0,0,1-.48-0.87,2.32,2.32,0,0,1-.06-0.81,13.241,13.241,0,0,1,.2-1.575c0.11-.63.24-1.28,0.4-1.95s0.32-1.305.48-1.905,0.28-1.08.36-1.44a0.393,0.393,0,0,0-.57-0.21c-0.16.48-.36,1.08-0.61,1.8s-0.51,1.455-.77,2.2-0.49,1.425-.69,2.025a0.449,0.449,0,0,1-.3.3,0.311,0.311,0,0,1-.36-0.21,7.593,7.593,0,0,1-.45-3.15,15.075,15.075,0,0,1,.33-3.39,16.646,16.646,0,0,1,.75-2.445q0.42-1.035.75-1.935a5.36,5.36,0,0,0,.33-1.86,3.567,3.567,0,0,0-.64-2.055,4.459,4.459,0,0,0-1.52-1.425,0.336,0.336,0,0,0-.31.1,0.387,0.387,0,0,0-.11.345,3.709,3.709,0,0,1,.45.915,3.485,3.485,0,0,1,.21,1.185,12.148,12.148,0,0,1-.27,2.61c-0.18.82-.38,1.635-0.61,2.445s-0.44,1.665-.62,2.565a15,15,0,0,0-.27,2.94,14.07,14.07,0,0,0,.65,4.71,5.536,5.536,0,0,0,1.75,2.61,1.354,1.354,0,0,0,.89.285,1.269,1.269,0,0,0,.76-0.225A1.207,1.207,0,0,0,7258.31,76.065Zm19.98-20.475a1.551,1.551,0,0,0-.42-1.17,3.43,3.43,0,0,0-1.21-.885,7.261,7.261,0,0,0-1.76-.555,8.554,8.554,0,0,0-1.86-.15,0.318,0.318,0,0,0-.19.24,0.435,0.435,0,0,0,.07.36,6.652,6.652,0,0,1,2.28,1.23,13.3,13.3,0,0,1,1.77,1.74,0.671,0.671,0,0,0,.5.285,0.728,0.728,0,0,0,.43-0.2A1.346,1.346,0,0,0,7278.29,55.59Zm-2.55,3.1a1.538,1.538,0,0,0-.12-1.245,3.342,3.342,0,0,0-.93-1.155,7.767,7.767,0,0,0-1.53-.99,8.211,8.211,0,0,0-1.74-.645,0.376,0.376,0,0,0-.3.54,7.389,7.389,0,0,1,1.88,1.815,14.465,14.465,0,0,1,1.27,2.115,0.676,0.676,0,0,0,.41.435,0.6,0.6,0,0,0,.43-0.075A1.335,1.335,0,0,0,7275.74,58.7Z" transform="translate(-7138.88 -30.281)"/>
</svg>

